<svg width="13" height="13" viewBox="0 0 13 13" fill="none" xmlns="http://www.w3.org/2000/svg">
<path d="M2.21 12.3529V0.452904H7.106C8.67 0.452904 9.89967 0.792904 10.795 1.4729C11.7017 2.14157 12.155 3.13324 12.155 4.4479C12.155 5.75124 11.7017 6.7429 10.795 7.4229C9.89967 8.09157 8.67 8.42591 7.106 8.42591H3.434L4.42 7.40591V12.3529H2.21ZM4.42 7.64391L3.434 6.6409H7.089C7.99567 6.6409 8.69267 6.4539 9.18 6.0799C9.67867 5.69457 9.928 5.15624 9.928 4.4649C9.928 3.77357 9.67867 3.24657 9.18 2.8839C8.69267 2.5099 7.99567 2.3229 7.089 2.3229H3.434L4.42 1.2349V7.64391ZM0.51 10.5849V9.39491H8.16V10.5849H0.51Z" fill="#FFA542"/>
</svg>
